<?xml version="1.0" standalone="no"?>
<!DOCTYPE svg PUBLIC "-//W3C//DTD SVG 20010904//EN"
 "http://www.w3.org/TR/2001/REC-SVG-20010904/DTD/svg10.dtd">
<svg version="1.0" xmlns="http://www.w3.org/2000/svg"
 width="512.000000pt" height="512.000000pt" viewBox="0 0 512.000000 512.000000"
 preserveAspectRatio="xMidYMid meet">
<metadata>
Created by potrace 1.14, written by Peter Selinger 2001-2017
</metadata>
<g transform="translate(0.000000,512.000000) scale(0.100000,-0.100000)"
fill="#000000" stroke="none">
<path d="M2378 5116 c-1 -2 -34 -6 -73 -10 -38 -3 -97 -10 -130 -16 -33 -6
-76 -13 -95 -16 -70 -11 -305 -75 -399 -110 -121 -44 -372 -167 -471 -231 -80
-50 -211 -142 -220 -153 -3 -3 -15 -13 -27 -21 -36 -25 -171 -150 -244 -225
-362 -375 -602 -851 -684 -1359 -2 -11 -6 -36 -9 -55 -22 -131 -29 -533 -12
-645 47 -292 88 -454 160 -638 169 -432 424 -778 801 -1086 309 -252 789 -464
1174 -517 20 -3 79 -11 131 -18 89 -12 496 -14 560 -2 14 2 45 7 70 10 347 51
683 170 981 351 87 52 274 188 343 250 252 221 457 484 606 775 121 239 213
517 246 750 2 19 6 44 9 55 19 95 27 458 13 605 -21 205 -71 430 -136 605 -52
141 -72 187 -132 305 -212 414 -529 760 -930 1014 -248 156 -620 301 -880 341
-19 3 -42 8 -50 10 -8 2 -39 7 -69 10 -30 4 -63 9 -75 12 -23 5 -452 13 -458
9z m417 -380 c285 -68 521 -230 679 -465 91 -136 157 -316 175 -476 9 -79 6
-287 -4 -335 -3 -14 -8 -38 -10 -55 -69 -391 -350 -681 -775 -796 -57 -16 -47
-14 -103 -23 -27 -4 -59 -9 -70 -12 -12 -2 -65 -6 -117 -9 -224 -13 -348 -43
-509 -127 -310 -160 -518 -444 -585 -799 -18 -98 -14 -321 8 -413 103 -421
398 -731 801 -840 11 -3 2 -3 -20 -1 -313 33 -649 162 -947 363 -173 117 -387
321 -506 483 -34 46 -70 95 -80 109 -26 34 -122 203 -154 270 -95 198 -159
408 -194 635 -32 202 -21 608 21 755 2 8 7 29 9 45 11 62 69 243 111 346 277
678 873 1172 1593 1324 217 45 535 55 677 21z m-125 -3043 c62 -22 142 -105
163 -168 88 -258 -178 -483 -419 -353 -16 9 -48 36 -71 61 -101 109 -96 283
10 395 41 43 79 63 147 78 63 13 105 10 170 -13z"/>
<path d="M2464 3958 c-54 -18 -125 -80 -158 -138 -28 -50 -31 -63 -31 -140 0
-99 17 -140 85 -208 105 -105 288 -107 397 -4 83 78 115 207 77 313 -22 61
-89 135 -149 164 -46 22 -172 30 -221 13z"/>
</g>
</svg>
